<svg viewBox="0 0 70 70" xmlns="http://www.w3.org/2000/svg"><g fill="none" fill-rule="evenodd"><path d="M25.23 6h25.54c6.687 0 9.112.696 11.556 2.003a13.63 13.63 0 0 1 5.67 5.67C69.305 16.119 70 18.544 70 25.23v25.542c0 6.686-.696 9.11-2.003 11.555a13.63 13.63 0 0 1-5.67 5.67C59.881 69.305 57.456 70 50.77 70H25.229c-6.686 0-9.11-.696-11.555-2.003a13.63 13.63 0 0 1-5.67-5.67C6.695 59.881 6 57.456 6 50.77V25.229c0-6.686.696-9.11 2.003-11.555a13.63 13.63 0 0 1 5.67-5.67C16.119 6.695 18.544 6 25.23 6z" fill="#0A60F5" fill-rule="nonzero" opacity=".249"/><path d="M19.23 0h25.54c6.687 0 9.112.696 11.556 2.003a13.63 13.63 0 0 1 5.67 5.67C63.305 10.119 64 12.544 64 19.23v25.542c0 6.686-.696 9.11-2.003 11.555a13.63 13.63 0 0 1-5.67 5.67C53.881 63.305 51.456 64 44.77 64H19.229c-6.686 0-9.11-.696-11.555-2.003a13.63 13.63 0 0 1-5.67-5.67C.695 53.881 0 51.456 0 44.77V19.229c0-6.686.696-9.11 2.003-11.555a13.63 13.63 0 0 1 5.67-5.67C10.119.695 12.544 0 19.23 0z" fill="#0A60F5" fill-rule="nonzero"/><g fill="#FFF"><path d="M42.717 42.795l-5.116 5.826c-.588.648-1.656.432-1.913-.395l-.626-1.906c-4.821 1.043-10.121-.252-13.875-3.956-4.086-3.992-5.337-9.674-3.754-14.745.478-1.51 2.429-2.014 3.57-.9.552.54.773 1.367.515 2.086a10.499 10.499 0 0 0 2.687 10.574c2.613 2.553 6.22 3.524 9.606 2.913l-.59-1.87c-.257-.827.516-1.583 1.362-1.367l7.582 1.978c.81.216 1.104 1.15.552 1.762z"/><path d="M42.57 21.788c4.085 3.992 5.336 9.674 3.79 14.71-.478 1.51-2.429 2.013-3.57.898-.552-.54-.773-1.366-.515-2.086a10.499 10.499 0 0 0-2.687-10.573c-2.613-2.553-6.22-3.524-9.606-2.913l.59 1.87c.257.827-.516 1.582-1.363 1.367l-7.618-1.942c-.81-.216-1.104-1.151-.552-1.763l5.116-5.826c.588-.647 1.656-.431 1.913.396l.626 1.906c4.821-1.043 10.121.252 13.875 3.956z" opacity=".5"/></g></g></svg>
